<?xml version="1.0" encoding="utf-8" standalone="no"?>
<!DOCTYPE svg PUBLIC "-//W3C//DTD SVG 1.1//EN"
  "http://www.w3.org/Graphics/SVG/1.1/DTD/svg11.dtd">
<!-- Created with matplotlib (https://matplotlib.org/) -->
<svg height="216pt" version="1.1" viewBox="0 0 576 216" width="576pt" xmlns="http://www.w3.org/2000/svg" xmlns:xlink="http://www.w3.org/1999/xlink">
 <defs>
  <style type="text/css">
*{stroke-linecap:butt;stroke-linejoin:round;}
  </style>
 </defs>
 <g id="figure_1">
  <g id="patch_1">
   <path d="M 0 216 
L 576 216 
L 576 0 
L 0 0 
z
" style="fill:#ffffff;"/>
  </g>
  <g id="axes_1">
   <g id="patch_2">
    <path d="M 72 192.24 
L 518.4 192.24 
L 518.4 25.92 
L 72 25.92 
z
" style="fill:#ffffff;"/>
   </g>
   <g id="matplotlib.axis_1">
    <g id="xtick_1">
     <g id="line2d_1">
      <defs>
       <path d="M 0 0 
L 0 3.5 
" id="mac22cbd995" style="stroke:#000000;stroke-width:0.8;"/>
      </defs>
      <g>
       <use style="stroke:#000000;stroke-width:0.8;" x="92.290909" xlink:href="#mac22cbd995" y="192.24"/>
      </g>
     </g>
     <g id="text_1">
      <!-- 0 -->
      <defs>
       <path d="M 31.78125 66.40625 
Q 24.171875 66.40625 20.328125 58.90625 
Q 16.5 51.421875 16.5 36.375 
Q 16.5 21.390625 20.328125 13.890625 
Q 24.171875 6.390625 31.78125 6.390625 
Q 39.453125 6.390625 43.28125 13.890625 
Q 47.125 21.390625 47.125 36.375 
Q 47.125 51.421875 43.28125 58.90625 
Q 39.453125 66.40625 31.78125 66.40625 
z
M 31.78125 74.21875 
Q 44.046875 74.21875 50.515625 64.515625 
Q 56.984375 54.828125 56.984375 36.375 
Q 56.984375 17.96875 50.515625 8.265625 
Q 44.046875 -1.421875 31.78125 -1.421875 
Q 19.53125 -1.421875 13.0625 8.265625 
Q 6.59375 17.96875 6.59375 36.375 
Q 6.59375 54.828125 13.0625 64.515625 
Q 19.53125 74.21875 31.78125 74.21875 
z
" id="DejaVuSans-48"/>
      </defs>
      <g transform="translate(89.109659 206.838437)scale(0.1 -0.1)">
       <use xlink:href="#DejaVuSans-48"/>
      </g>
     </g>
    </g>
    <g id="xtick_2">
     <g id="line2d_2">
      <g>
       <use style="stroke:#000000;stroke-width:0.8;" x="173.617198" xlink:href="#mac22cbd995" y="192.24"/>
      </g>
     </g>
     <g id="text_2">
      <!-- 100 -->
      <defs>
       <path d="M 12.40625 8.296875 
L 28.515625 8.296875 
L 28.515625 63.921875 
L 10.984375 60.40625 
L 10.984375 69.390625 
L 28.421875 72.90625 
L 38.28125 72.90625 
L 38.28125 8.296875 
L 54.390625 8.296875 
L 54.390625 0 
L 12.40625 0 
z
" id="DejaVuSans-49"/>
      </defs>
      <g transform="translate(164.073448 206.838437)scale(0.1 -0.1)">
       <use xlink:href="#DejaVuSans-49"/>
       <use x="63.623047" xlink:href="#DejaVuSans-48"/>
       <use x="127.246094" xlink:href="#DejaVuSans-48"/>
      </g>
     </g>
    </g>
    <g id="xtick_3">
     <g id="line2d_3">
      <g>
       <use style="stroke:#000000;stroke-width:0.8;" x="254.943487" xlink:href="#mac22cbd995" y="192.24"/>
      </g>
     </g>
     <g id="text_3">
      <!-- 200 -->
      <defs>
       <path d="M 19.1875 8.296875 
L 53.609375 8.296875 
L 53.609375 0 
L 7.328125 0 
L 7.328125 8.296875 
Q 12.9375 14.109375 22.625 23.890625 
Q 32.328125 33.6875 34.8125 36.53125 
Q 39.546875 41.84375 41.421875 45.53125 
Q 43.3125 49.21875 43.3125 52.78125 
Q 43.3125 58.59375 39.234375 62.25 
Q 35.15625 65.921875 28.609375 65.921875 
Q 23.96875 65.921875 18.8125 64.3125 
Q 13.671875 62.703125 7.8125 59.421875 
L 7.8125 69.390625 
Q 13.765625 71.78125 18.9375 73 
Q 24.125 74.21875 28.421875 74.21875 
Q 39.75 74.21875 46.484375 68.546875 
Q 53.21875 62.890625 53.21875 53.421875 
Q 53.21875 48.921875 51.53125 44.890625 
Q 49.859375 40.875 45.40625 35.40625 
Q 44.1875 33.984375 37.640625 27.21875 
Q 31.109375 20.453125 19.1875 8.296875 
z
" id="DejaVuSans-50"/>
      </defs>
      <g transform="translate(245.399737 206.838437)scale(0.1 -0.1)">
       <use xlink:href="#DejaVuSans-50"/>
       <use x="63.623047" xlink:href="#DejaVuSans-48"/>
       <use x="127.246094" xlink:href="#DejaVuSans-48"/>
      </g>
     </g>
    </g>
    <g id="xtick_4">
     <g id="line2d_4">
      <g>
       <use style="stroke:#000000;stroke-width:0.8;" x="336.269776" xlink:href="#mac22cbd995" y="192.24"/>
      </g>
     </g>
     <g id="text_4">
      <!-- 300 -->
      <defs>
       <path d="M 40.578125 39.3125 
Q 47.65625 37.796875 51.625 33 
Q 55.609375 28.21875 55.609375 21.1875 
Q 55.609375 10.40625 48.1875 4.484375 
Q 40.765625 -1.421875 27.09375 -1.421875 
Q 22.515625 -1.421875 17.65625 -0.515625 
Q 12.796875 0.390625 7.625 2.203125 
L 7.625 11.71875 
Q 11.71875 9.328125 16.59375 8.109375 
Q 21.484375 6.890625 26.8125 6.890625 
Q 36.078125 6.890625 40.9375 10.546875 
Q 45.796875 14.203125 45.796875 21.1875 
Q 45.796875 27.640625 41.28125 31.265625 
Q 36.765625 34.90625 28.71875 34.90625 
L 20.21875 34.90625 
L 20.21875 43.015625 
L 29.109375 43.015625 
Q 36.375 43.015625 40.234375 45.921875 
Q 44.09375 48.828125 44.09375 54.296875 
Q 44.09375 59.90625 40.109375 62.90625 
Q 36.140625 65.921875 28.71875 65.921875 
Q 24.65625 65.921875 20.015625 65.03125 
Q 15.375 64.15625 9.8125 62.3125 
L 9.8125 71.09375 
Q 15.4375 72.65625 20.34375 73.4375 
Q 25.25 74.21875 29.59375 74.21875 
Q 40.828125 74.21875 47.359375 69.109375 
Q 53.90625 64.015625 53.90625 55.328125 
Q 53.90625 49.265625 50.4375 45.09375 
Q 46.96875 40.921875 40.578125 39.3125 
z
" id="DejaVuSans-51"/>
      </defs>
      <g transform="translate(326.726026 206.838437)scale(0.1 -0.1)">
       <use xlink:href="#DejaVuSans-51"/>
       <use x="63.623047" xlink:href="#DejaVuSans-48"/>
       <use x="127.246094" xlink:href="#DejaVuSans-48"/>
      </g>
     </g>
    </g>
    <g id="xtick_5">
     <g id="line2d_5">
      <g>
       <use style="stroke:#000000;stroke-width:0.8;" x="417.596065" xlink:href="#mac22cbd995" y="192.24"/>
      </g>
     </g>
     <g id="text_5">
      <!-- 400 -->
      <defs>
       <path d="M 37.796875 64.3125 
L 12.890625 25.390625 
L 37.796875 25.390625 
z
M 35.203125 72.90625 
L 47.609375 72.90625 
L 47.609375 25.390625 
L 58.015625 25.390625 
L 58.015625 17.1875 
L 47.609375 17.1875 
L 47.609375 0 
L 37.796875 0 
L 37.796875 17.1875 
L 4.890625 17.1875 
L 4.890625 26.703125 
z
" id="DejaVuSans-52"/>
      </defs>
      <g transform="translate(408.052315 206.838437)scale(0.1 -0.1)">
       <use xlink:href="#DejaVuSans-52"/>
       <use x="63.623047" xlink:href="#DejaVuSans-48"/>
       <use x="127.246094" xlink:href="#DejaVuSans-48"/>
      </g>
     </g>
    </g>
    <g id="xtick_6">
     <g id="line2d_6">
      <g>
       <use style="stroke:#000000;stroke-width:0.8;" x="498.922354" xlink:href="#mac22cbd995" y="192.24"/>
      </g>
     </g>
     <g id="text_6">
      <!-- 500 -->
      <defs>
       <path d="M 10.796875 72.90625 
L 49.515625 72.90625 
L 49.515625 64.59375 
L 19.828125 64.59375 
L 19.828125 46.734375 
Q 21.96875 47.46875 24.109375 47.828125 
Q 26.265625 48.1875 28.421875 48.1875 
Q 40.625 48.1875 47.75 41.5 
Q 54.890625 34.8125 54.890625 23.390625 
Q 54.890625 11.625 47.5625 5.09375 
Q 40.234375 -1.421875 26.90625 -1.421875 
Q 22.3125 -1.421875 17.546875 -0.640625 
Q 12.796875 0.140625 7.71875 1.703125 
L 7.71875 11.625 
Q 12.109375 9.234375 16.796875 8.0625 
Q 21.484375 6.890625 26.703125 6.890625 
Q 35.15625 6.890625 40.078125 11.328125 
Q 45.015625 15.765625 45.015625 23.390625 
Q 45.015625 31 40.078125 35.4375 
Q 35.15625 39.890625 26.703125 39.890625 
Q 22.75 39.890625 18.8125 39.015625 
Q 14.890625 38.140625 10.796875 36.28125 
z
" id="DejaVuSans-53"/>
      </defs>
      <g transform="translate(489.378604 206.838437)scale(0.1 -0.1)">
       <use xlink:href="#DejaVuSans-53"/>
       <use x="63.623047" xlink:href="#DejaVuSans-48"/>
       <use x="127.246094" xlink:href="#DejaVuSans-48"/>
      </g>
     </g>
    </g>
   </g>
   <g id="matplotlib.axis_2">
    <g id="ytick_1">
     <g id="line2d_7">
      <defs>
       <path d="M 0 0 
L -3.5 0 
" id="mb927043123" style="stroke:#000000;stroke-width:0.8;"/>
      </defs>
      <g>
       <use style="stroke:#000000;stroke-width:0.8;" x="72" xlink:href="#mb927043123" y="174.958654"/>
      </g>
     </g>
     <g id="text_7">
      <!-- −1.0 -->
      <defs>
       <path d="M 10.59375 35.5 
L 73.1875 35.5 
L 73.1875 27.203125 
L 10.59375 27.203125 
z
" id="DejaVuSans-8722"/>
       <path d="M 10.6875 12.40625 
L 21 12.40625 
L 21 0 
L 10.6875 0 
z
" id="DejaVuSans-46"/>
      </defs>
      <g transform="translate(40.717187 178.757873)scale(0.1 -0.1)">
       <use xlink:href="#DejaVuSans-8722"/>
       <use x="83.789062" xlink:href="#DejaVuSans-49"/>
       <use x="147.412109" xlink:href="#DejaVuSans-46"/>
       <use x="179.199219" xlink:href="#DejaVuSans-48"/>
      </g>
     </g>
    </g>
    <g id="ytick_2">
     <g id="line2d_8">
      <g>
       <use style="stroke:#000000;stroke-width:0.8;" x="72" xlink:href="#mb927043123" y="142.017418"/>
      </g>
     </g>
     <g id="text_8">
      <!-- −0.5 -->
      <g transform="translate(40.717187 145.816637)scale(0.1 -0.1)">
       <use xlink:href="#DejaVuSans-8722"/>
       <use x="83.789062" xlink:href="#DejaVuSans-48"/>
       <use x="147.412109" xlink:href="#DejaVuSans-46"/>
       <use x="179.199219" xlink:href="#DejaVuSans-53"/>
      </g>
     </g>
    </g>
    <g id="ytick_3">
     <g id="line2d_9">
      <g>
       <use style="stroke:#000000;stroke-width:0.8;" x="72" xlink:href="#mb927043123" y="109.076182"/>
      </g>
     </g>
     <g id="text_9">
      <!-- 0.0 -->
      <g transform="translate(49.096875 112.875401)scale(0.1 -0.1)">
       <use xlink:href="#DejaVuSans-48"/>
       <use x="63.623047" xlink:href="#DejaVuSans-46"/>
       <use x="95.410156" xlink:href="#DejaVuSans-48"/>
      </g>
     </g>
    </g>
    <g id="ytick_4">
     <g id="line2d_10">
      <g>
       <use style="stroke:#000000;stroke-width:0.8;" x="72" xlink:href="#mb927043123" y="76.134947"/>
      </g>
     </g>
     <g id="text_10">
      <!-- 0.5 -->
      <g transform="translate(49.096875 79.934165)scale(0.1 -0.1)">
       <use xlink:href="#DejaVuSans-48"/>
       <use x="63.623047" xlink:href="#DejaVuSans-46"/>
       <use x="95.410156" xlink:href="#DejaVuSans-53"/>
      </g>
     </g>
    </g>
    <g id="ytick_5">
     <g id="line2d_11">
      <g>
       <use style="stroke:#000000;stroke-width:0.8;" x="72" xlink:href="#mb927043123" y="43.193711"/>
      </g>
     </g>
     <g id="text_11">
      <!-- 1.0 -->
      <g transform="translate(49.096875 46.992929)scale(0.1 -0.1)">
       <use xlink:href="#DejaVuSans-49"/>
       <use x="63.623047" xlink:href="#DejaVuSans-46"/>
       <use x="95.410156" xlink:href="#DejaVuSans-48"/>
      </g>
     </g>
    </g>
   </g>
   <g id="line2d_12">
    <path clip-path="url(#p948cd93ceb)" d="M 92.290909 109.076182 
L 93.104172 156.206441 
L 93.917435 181.936846 
L 94.730698 182.214231 
L 95.543961 170.888408 
L 96.357224 164.406921 
L 97.170486 167.333146 
L 97.983749 172.416965 
L 98.797012 172.078613 
L 99.610275 166.997888 
L 100.423538 163.361549 
L 101.236801 164.363871 
L 102.050064 166.924008 
L 102.863327 166.539404 
L 103.67659 163.076242 
L 104.489852 160.297218 
L 105.303115 160.605737 
L 106.116378 162.178806 
L 106.929641 161.783903 
L 108.556167 156.697067 
L 109.36943 156.646676 
L 110.182693 157.694358 
L 110.995956 157.297999 
L 112.622481 152.878846 
L 113.435744 152.607942 
L 114.249007 153.33025 
L 115.06227 152.936217 
L 116.688796 148.950778 
L 117.502059 148.529518 
L 118.315322 149.031237 
L 119.128584 148.641859 
L 120.75511 144.9597 
L 121.568373 144.428257 
L 122.381636 144.771208 
L 123.194899 144.388318 
L 124.821425 140.92916 
L 125.634688 140.312431 
L 126.44795 140.536214 
L 127.261213 140.161486 
L 128.887739 136.872285 
L 129.701002 136.186529 
L 130.514265 136.318104 
L 131.327528 135.953212 
L 132.954054 132.796971 
L 133.767316 132.053158 
L 134.580579 132.111777 
L 135.393842 131.75848 
L 136.207105 130.36162 
L 137.020368 128.708256 
L 137.833631 127.913891 
L 138.646894 127.91385 
L 139.460157 127.57406 
L 140.27342 126.239739 
L 141.086682 124.609504 
L 141.899945 123.769688 
L 142.713208 123.721961 
L 143.526471 123.397803 
L 144.339734 122.117409 
L 145.152997 120.503055 
L 145.96626 119.621112 
L 146.779523 119.534378 
L 147.592786 119.228259 
L 148.406048 117.995351 
L 149.219311 116.390585 
L 150.032574 115.468444 
L 150.845837 115.349765 
L 151.6591 115.064447 
L 152.472363 113.874234 
L 153.285626 112.273334 
L 154.098889 111.311746 
L 154.912152 111.16703 
L 155.725414 110.905733 
L 156.538677 109.754724 
L 157.35194 108.152243 
L 158.165203 107.150887 
L 159.791729 106.751746 
L 160.604992 105.637543 
L 161.418255 104.028043 
L 162.231518 102.985539 
L 163.858043 102.602345 
L 164.671306 101.523524 
L 165.484569 99.90132 
L 166.297832 98.815158 
L 167.924358 98.457608 
L 168.737621 97.413675 
L 169.550884 95.772558 
L 170.364146 94.638926 
L 171.990672 94.317852 
L 172.803935 93.309282 
L 173.617198 91.64217 
L 174.430461 90.455661 
L 175.243724 90.248658 
L 176.056987 90.183681 
L 176.87025 89.212042 
L 177.683512 87.510526 
L 178.496775 86.263667 
L 179.310038 86.056533 
L 180.123301 86.056093 
L 180.936564 85.124291 
L 181.749827 83.377972 
L 182.56309 82.06048 
L 183.376353 81.857879 
L 184.189616 81.936654 
L 185.002878 81.04936 
L 185.816141 79.244855 
L 186.629404 77.842429 
L 187.442667 77.649881 
L 188.25593 77.827831 
L 189.069193 76.992208 
L 189.882456 75.111536 
L 190.695719 73.60385 
L 191.508982 73.428324 
L 192.322244 73.733607 
L 193.135507 72.960588 
L 193.94877 70.978407 
L 194.762033 69.335567 
L 195.575296 69.186525 
L 196.388559 69.660731 
L 197.201822 68.967365 
L 198.828348 65.021737 
L 199.64161 64.913096 
L 200.454873 65.621463 
L 201.268136 65.035595 
L 202.894662 60.632518 
L 203.707925 60.586847 
L 204.521188 61.640455 
L 205.334451 61.211111 
L 206.960976 56.104384 
L 207.774239 56.163279 
L 208.587502 57.775269 
L 209.400765 57.599759 
L 211.027291 51.27449 
L 211.840554 51.530783 
L 212.653817 54.196933 
L 213.46708 54.51209 
L 215.093605 45.567518 
L 215.906868 46.314493 
L 216.720131 51.71133 
L 217.533394 53.394558 
L 218.346657 45.405761 
L 219.15992 34.690643 
L 219.973183 38.519593 
L 220.786446 68.600613 
L 222.412971 162.246611 
L 223.226234 183.517412 
L 224.039497 180.651869 
L 224.85276 169.190382 
L 225.666023 164.336589 
L 226.479286 168.282358 
L 227.292549 172.829394 
L 228.105812 171.431951 
L 228.919075 166.143655 
L 229.732337 163.223132 
L 230.5456 164.817213 
L 231.358863 167.136066 
L 232.172126 166.108634 
L 232.985389 162.466158 
L 233.798652 160.135462 
L 234.611915 160.871672 
L 235.425178 162.308239 
L 236.238441 161.449807 
L 237.051703 158.570233 
L 237.864966 156.523204 
L 238.678229 156.814158 
L 239.491492 157.779015 
L 240.304755 157.018918 
L 241.118018 154.579339 
L 241.931281 152.697286 
L 242.744544 152.714742 
L 243.557807 153.387106 
L 244.371069 152.692825 
L 245.184332 150.539423 
L 245.997595 148.76363 
L 246.810858 148.595153 
L 247.624121 149.069411 
L 248.437384 148.423665 
L 250.06391 144.768076 
L 250.877173 144.464108 
L 251.690435 144.796213 
L 252.503698 144.189037 
L 254.130224 140.733662 
L 254.943487 140.3257 
L 255.75675 140.551677 
L 256.570013 139.977095 
L 258.196539 136.67322 
L 259.009801 136.182049 
L 259.823064 136.326577 
L 260.636327 135.781018 
L 262.262853 132.594455 
L 263.076116 132.034317 
L 263.889379 132.115161 
L 264.702642 131.596629 
L 266.329167 128.502269 
L 267.14243 127.883142 
L 267.955693 127.913637 
L 268.768956 127.421264 
L 270.395482 124.399919 
L 271.208745 123.728853 
L 272.022008 123.719379 
L 272.835271 123.253174 
L 274.461796 120.289648 
L 275.275059 119.571561 
L 276.088322 119.53049 
L 276.901585 119.091209 
L 278.528111 116.17304 
L 279.341374 115.411219 
L 280.154637 115.345535 
L 280.967899 114.934631 
L 281.781162 113.611704 
L 282.594425 112.051237 
L 283.407688 111.247637 
L 284.220951 111.163374 
L 285.034214 110.783012 
L 285.847477 109.495637 
L 286.66074 107.925069 
L 287.474003 107.080481 
L 288.287265 106.983053 
L 289.100528 106.636172 
L 289.913791 105.38103 
L 290.727054 103.795136 
L 291.540317 102.909254 
L 292.35358 102.803718 
L 293.166843 102.494163 
L 293.980106 101.268774 
L 294.793369 99.66186 
L 295.606631 98.733257 
L 296.419894 98.624546 
L 297.233157 98.357271 
L 298.04642 97.159907 
L 298.859683 95.525515 
L 299.672946 94.551525 
L 301.299472 94.226056 
L 302.112735 93.0557 
L 302.925997 91.38624 
L 303.73926 90.362724 
L 305.365786 90.101429 
L 306.179049 88.957799 
L 306.992312 87.244027 
L 307.805575 86.164982 
L 309.432101 85.984784 
L 310.245363 84.868435 
L 311.058626 83.098699 
L 311.871889 81.955616 
L 313.498415 81.878245 
L 314.311678 80.79076 
L 315.124941 78.949837 
L 315.938204 77.730662 
L 316.751467 77.694977 
L 317.564729 77.785088 
L 318.377992 76.729439 
L 319.191255 74.796646 
L 320.004518 73.484031 
L 320.817781 73.490246 
L 321.631044 73.710547 
L 322.444307 72.691742 
L 323.25757 70.637676 
L 324.070833 69.205888 
L 324.884095 69.271055 
L 325.697358 69.663415 
L 326.510621 68.689709 
L 327.323884 66.470199 
L 328.137147 64.87927 
L 328.95041 65.029178 
L 329.763673 65.659575 
L 330.576936 64.744879 
L 331.390199 62.288686 
L 332.203461 60.472255 
L 333.016724 60.749501 
L 333.829987 61.730777 
L 334.64325 60.900019 
L 335.456513 58.080432 
L 336.269776 55.916913 
L 337.083039 56.400866 
L 337.896302 57.950682 
L 338.709565 57.253729 
L 339.522827 53.809793 
L 340.33609 51.039114 
L 341.149353 51.907716 
L 341.962616 54.536333 
L 342.775879 54.094425 
L 344.402405 45.223207 
L 345.215668 47.038049 
L 346.028931 52.499483 
L 346.842193 52.753095 
L 348.468719 33.844013 
L 349.281982 41.571831 
L 350.095245 75.794928 
L 350.908508 125.724607 
L 351.721771 167.612113 
L 352.535034 184.414105 
L 353.348297 178.862291 
L 354.161559 167.702264 
L 354.974822 164.526777 
L 355.788085 169.242073 
L 356.601348 173.060509 
L 357.414611 170.671068 
L 358.227874 165.36395 
L 359.041137 163.220726 
L 360.667663 167.245957 
L 361.480925 165.599834 
L 362.294188 161.897084 
L 363.107451 160.066461 
L 364.733977 162.367643 
L 365.54724 161.055022 
L 366.360503 158.101974 
L 367.173766 156.420162 
L 367.987029 157.001464 
L 368.800291 157.811069 
L 369.613554 156.689242 
L 370.426817 154.169962 
L 371.24008 152.57331 
L 372.053343 152.841015 
L 372.866606 153.402304 
L 373.679869 152.405388 
L 374.493132 150.168443 
L 375.306395 148.62523 
L 376.119657 148.680019 
L 376.93292 149.07346 
L 377.746183 148.165977 
L 378.559446 146.127095 
L 379.372709 144.6189 
L 380.185972 144.519065 
L 380.999235 144.79261 
L 381.812498 143.953564 
L 382.625761 142.061015 
L 383.439024 140.575907 
L 384.252286 140.358061 
L 385.065549 140.542765 
L 385.878812 139.758977 
L 386.692075 137.978711 
L 387.505338 136.508262 
L 388.318601 136.19675 
L 389.131864 136.314045 
L 389.945127 135.576966 
L 391.571652 132.423165 
L 392.384915 132.034842 
L 393.198178 132.100308 
L 394.011441 131.404347 
L 395.637967 128.325179 
L 396.45123 127.872042 
L 397.264493 127.89752 
L 398.077756 127.239115 
L 399.704281 124.217319 
L 400.517544 123.708042 
L 401.330807 123.702912 
L 402.14407 123.079989 
L 403.770596 120.10164 
L 404.583859 119.542515 
L 405.397122 119.514502 
L 406.210384 118.926161 
L 407.83691 115.979566 
L 408.650173 115.375089 
L 409.463436 115.330822 
L 410.276699 114.777164 
L 411.903225 111.852094 
L 412.716488 111.205334 
L 413.52975 111.150736 
L 414.343013 110.63279 
L 415.969539 107.719906 
L 416.782802 107.032732 
L 417.596065 106.97333 
L 418.409328 106.49306 
L 420.035854 103.583445 
L 420.849116 102.856636 
L 421.662379 102.797829 
L 422.475642 102.358214 
L 424.102168 99.442948 
L 424.915431 98.676227 
L 425.728694 98.623536 
L 426.541957 98.228739 
L 427.35522 96.892856 
L 428.168482 95.298467 
L 428.981745 94.490434 
L 429.795008 94.449778 
L 430.608271 94.105415 
L 431.421534 92.786942 
L 432.234797 91.149853 
L 433.04806 90.297823 
L 433.861323 90.275851 
L 434.674586 89.989423 
L 435.487848 88.686214 
L 436.301111 86.996715 
L 437.114374 86.096425 
L 437.927637 86.100957 
L 438.7409 85.882507 
L 439.554163 84.592697 
L 440.367426 82.838346 
L 441.180689 81.88345 
L 441.993952 81.924116 
L 442.807214 81.787268 
L 443.620477 80.509225 
L 444.43374 78.67356 
L 445.247003 77.654804 
L 446.060266 77.744028 
L 446.873529 77.707674 
L 447.686792 76.439961 
L 448.500055 74.500406 
L 449.313318 73.404224 
L 450.939843 73.650019 
L 451.753106 72.391364 
L 452.566369 70.315597 
L 453.379632 69.121613 
L 455.006158 69.624838 
L 455.819421 68.374092 
L 456.632684 66.113287 
L 457.445946 64.789585 
L 459.072472 65.651094 
L 459.885735 64.407172 
L 460.698998 61.882192 
L 461.512261 60.375433 
L 462.325524 60.934051 
L 463.138787 61.766597 
L 463.95205 60.52827 
L 464.765312 57.597666 
L 465.578575 55.809574 
L 466.391838 56.671675 
L 467.205101 58.058823 
L 468.018364 56.823873 
L 468.831627 53.194561 
L 469.64489 50.913625 
L 470.458153 52.339766 
L 471.271416 54.784689 
L 472.084678 53.544994 
L 472.897941 48.433353 
L 473.711204 45.056537 
L 474.524467 47.876838 
L 475.33773 53.13838 
L 476.150993 51.82207 
L 476.964256 41.459436 
L 477.777519 33.48 
L 478.590782 45.380767 
L 479.404044 83.440896 
L 480.217307 133.758785 
L 481.03057 172.25878 
L 481.843833 184.68 
L 482.657096 176.932309 
L 483.470359 166.462318 
L 484.283622 164.948755 
L 485.096885 170.167683 
L 485.910148 173.103447 
L 486.72341 169.825688 
L 487.536673 164.682351 
L 488.349936 163.344708 
L 489.163199 165.757534 
L 489.976462 167.246318 
L 490.789725 165.030091 
L 491.602988 161.385819 
L 492.416251 160.085591 
L 493.229514 161.446381 
L 494.042776 162.350307 
L 494.856039 160.611191 
L 495.669302 157.67287 
L 496.482565 156.385536 
L 497.295828 157.195076 
L 498.109091 157.784364 
L 498.109091 157.784364 
" style="fill:none;stroke:#1f77b4;stroke-linecap:square;stroke-width:1.5;"/>
   </g>
   <g id="patch_3">
    <path d="M 72 192.24 
L 72 25.92 
" style="fill:none;stroke:#000000;stroke-linecap:square;stroke-linejoin:miter;stroke-width:0.8;"/>
   </g>
   <g id="patch_4">
    <path d="M 518.4 192.24 
L 518.4 25.92 
" style="fill:none;stroke:#000000;stroke-linecap:square;stroke-linejoin:miter;stroke-width:0.8;"/>
   </g>
   <g id="patch_5">
    <path d="M 72 192.24 
L 518.4 192.24 
" style="fill:none;stroke:#000000;stroke-linecap:square;stroke-linejoin:miter;stroke-width:0.8;"/>
   </g>
   <g id="patch_6">
    <path d="M 72 25.92 
L 518.4 25.92 
" style="fill:none;stroke:#000000;stroke-linecap:square;stroke-linejoin:miter;stroke-width:0.8;"/>
   </g>
  </g>
 </g>
 <defs>
  <clipPath id="p948cd93ceb">
   <rect height="166.32" width="446.4" x="72" y="25.92"/>
  </clipPath>
 </defs>
</svg>
