<?xml version="1.0" encoding="utf-8" standalone="no"?>
<!DOCTYPE svg PUBLIC "-//W3C//DTD SVG 1.1//EN"
  "http://www.w3.org/Graphics/SVG/1.1/DTD/svg11.dtd">
<!-- Created with matplotlib (https://matplotlib.org/) -->
<svg height="216pt" version="1.1" viewBox="0 0 576 216" width="576pt" xmlns="http://www.w3.org/2000/svg" xmlns:xlink="http://www.w3.org/1999/xlink">
 <defs>
  <style type="text/css">
*{stroke-linecap:butt;stroke-linejoin:round;}
  </style>
 </defs>
 <g id="figure_1">
  <g id="patch_1">
   <path d="M 0 216 
L 576 216 
L 576 0 
L 0 0 
z
" style="fill:#ffffff;"/>
  </g>
  <g id="axes_1">
   <g id="patch_2">
    <path d="M 72 192.24 
L 518.4 192.24 
L 518.4 25.92 
L 72 25.92 
z
" style="fill:#ffffff;"/>
   </g>
   <g id="matplotlib.axis_1">
    <g id="xtick_1">
     <g id="line2d_1">
      <defs>
       <path d="M 0 0 
L 0 3.5 
" id="med22aa07d5" style="stroke:#000000;stroke-width:0.8;"/>
      </defs>
      <g>
       <use style="stroke:#000000;stroke-width:0.8;" x="92.290909" xlink:href="#med22aa07d5" y="192.24"/>
      </g>
     </g>
     <g id="text_1">
      <!-- 0 -->
      <defs>
       <path d="M 31.78125 66.40625 
Q 24.171875 66.40625 20.328125 58.90625 
Q 16.5 51.421875 16.5 36.375 
Q 16.5 21.390625 20.328125 13.890625 
Q 24.171875 6.390625 31.78125 6.390625 
Q 39.453125 6.390625 43.28125 13.890625 
Q 47.125 21.390625 47.125 36.375 
Q 47.125 51.421875 43.28125 58.90625 
Q 39.453125 66.40625 31.78125 66.40625 
z
M 31.78125 74.21875 
Q 44.046875 74.21875 50.515625 64.515625 
Q 56.984375 54.828125 56.984375 36.375 
Q 56.984375 17.96875 50.515625 8.265625 
Q 44.046875 -1.421875 31.78125 -1.421875 
Q 19.53125 -1.421875 13.0625 8.265625 
Q 6.59375 17.96875 6.59375 36.375 
Q 6.59375 54.828125 13.0625 64.515625 
Q 19.53125 74.21875 31.78125 74.21875 
z
" id="DejaVuSans-48"/>
      </defs>
      <g transform="translate(89.109659 206.838437)scale(0.1 -0.1)">
       <use xlink:href="#DejaVuSans-48"/>
      </g>
     </g>
    </g>
    <g id="xtick_2">
     <g id="line2d_2">
      <g>
       <use style="stroke:#000000;stroke-width:0.8;" x="173.617198" xlink:href="#med22aa07d5" y="192.24"/>
      </g>
     </g>
     <g id="text_2">
      <!-- 100 -->
      <defs>
       <path d="M 12.40625 8.296875 
L 28.515625 8.296875 
L 28.515625 63.921875 
L 10.984375 60.40625 
L 10.984375 69.390625 
L 28.421875 72.90625 
L 38.28125 72.90625 
L 38.28125 8.296875 
L 54.390625 8.296875 
L 54.390625 0 
L 12.40625 0 
z
" id="DejaVuSans-49"/>
      </defs>
      <g transform="translate(164.073448 206.838437)scale(0.1 -0.1)">
       <use xlink:href="#DejaVuSans-49"/>
       <use x="63.623047" xlink:href="#DejaVuSans-48"/>
       <use x="127.246094" xlink:href="#DejaVuSans-48"/>
      </g>
     </g>
    </g>
    <g id="xtick_3">
     <g id="line2d_3">
      <g>
       <use style="stroke:#000000;stroke-width:0.8;" x="254.943487" xlink:href="#med22aa07d5" y="192.24"/>
      </g>
     </g>
     <g id="text_3">
      <!-- 200 -->
      <defs>
       <path d="M 19.1875 8.296875 
L 53.609375 8.296875 
L 53.609375 0 
L 7.328125 0 
L 7.328125 8.296875 
Q 12.9375 14.109375 22.625 23.890625 
Q 32.328125 33.6875 34.8125 36.53125 
Q 39.546875 41.84375 41.421875 45.53125 
Q 43.3125 49.21875 43.3125 52.78125 
Q 43.3125 58.59375 39.234375 62.25 
Q 35.15625 65.921875 28.609375 65.921875 
Q 23.96875 65.921875 18.8125 64.3125 
Q 13.671875 62.703125 7.8125 59.421875 
L 7.8125 69.390625 
Q 13.765625 71.78125 18.9375 73 
Q 24.125 74.21875 28.421875 74.21875 
Q 39.75 74.21875 46.484375 68.546875 
Q 53.21875 62.890625 53.21875 53.421875 
Q 53.21875 48.921875 51.53125 44.890625 
Q 49.859375 40.875 45.40625 35.40625 
Q 44.1875 33.984375 37.640625 27.21875 
Q 31.109375 20.453125 19.1875 8.296875 
z
" id="DejaVuSans-50"/>
      </defs>
      <g transform="translate(245.399737 206.838437)scale(0.1 -0.1)">
       <use xlink:href="#DejaVuSans-50"/>
       <use x="63.623047" xlink:href="#DejaVuSans-48"/>
       <use x="127.246094" xlink:href="#DejaVuSans-48"/>
      </g>
     </g>
    </g>
    <g id="xtick_4">
     <g id="line2d_4">
      <g>
       <use style="stroke:#000000;stroke-width:0.8;" x="336.269776" xlink:href="#med22aa07d5" y="192.24"/>
      </g>
     </g>
     <g id="text_4">
      <!-- 300 -->
      <defs>
       <path d="M 40.578125 39.3125 
Q 47.65625 37.796875 51.625 33 
Q 55.609375 28.21875 55.609375 21.1875 
Q 55.609375 10.40625 48.1875 4.484375 
Q 40.765625 -1.421875 27.09375 -1.421875 
Q 22.515625 -1.421875 17.65625 -0.515625 
Q 12.796875 0.390625 7.625 2.203125 
L 7.625 11.71875 
Q 11.71875 9.328125 16.59375 8.109375 
Q 21.484375 6.890625 26.8125 6.890625 
Q 36.078125 6.890625 40.9375 10.546875 
Q 45.796875 14.203125 45.796875 21.1875 
Q 45.796875 27.640625 41.28125 31.265625 
Q 36.765625 34.90625 28.71875 34.90625 
L 20.21875 34.90625 
L 20.21875 43.015625 
L 29.109375 43.015625 
Q 36.375 43.015625 40.234375 45.921875 
Q 44.09375 48.828125 44.09375 54.296875 
Q 44.09375 59.90625 40.109375 62.90625 
Q 36.140625 65.921875 28.71875 65.921875 
Q 24.65625 65.921875 20.015625 65.03125 
Q 15.375 64.15625 9.8125 62.3125 
L 9.8125 71.09375 
Q 15.4375 72.65625 20.34375 73.4375 
Q 25.25 74.21875 29.59375 74.21875 
Q 40.828125 74.21875 47.359375 69.109375 
Q 53.90625 64.015625 53.90625 55.328125 
Q 53.90625 49.265625 50.4375 45.09375 
Q 46.96875 40.921875 40.578125 39.3125 
z
" id="DejaVuSans-51"/>
      </defs>
      <g transform="translate(326.726026 206.838437)scale(0.1 -0.1)">
       <use xlink:href="#DejaVuSans-51"/>
       <use x="63.623047" xlink:href="#DejaVuSans-48"/>
       <use x="127.246094" xlink:href="#DejaVuSans-48"/>
      </g>
     </g>
    </g>
    <g id="xtick_5">
     <g id="line2d_5">
      <g>
       <use style="stroke:#000000;stroke-width:0.8;" x="417.596065" xlink:href="#med22aa07d5" y="192.24"/>
      </g>
     </g>
     <g id="text_5">
      <!-- 400 -->
      <defs>
       <path d="M 37.796875 64.3125 
L 12.890625 25.390625 
L 37.796875 25.390625 
z
M 35.203125 72.90625 
L 47.609375 72.90625 
L 47.609375 25.390625 
L 58.015625 25.390625 
L 58.015625 17.1875 
L 47.609375 17.1875 
L 47.609375 0 
L 37.796875 0 
L 37.796875 17.1875 
L 4.890625 17.1875 
L 4.890625 26.703125 
z
" id="DejaVuSans-52"/>
      </defs>
      <g transform="translate(408.052315 206.838437)scale(0.1 -0.1)">
       <use xlink:href="#DejaVuSans-52"/>
       <use x="63.623047" xlink:href="#DejaVuSans-48"/>
       <use x="127.246094" xlink:href="#DejaVuSans-48"/>
      </g>
     </g>
    </g>
    <g id="xtick_6">
     <g id="line2d_6">
      <g>
       <use style="stroke:#000000;stroke-width:0.8;" x="498.922354" xlink:href="#med22aa07d5" y="192.24"/>
      </g>
     </g>
     <g id="text_6">
      <!-- 500 -->
      <defs>
       <path d="M 10.796875 72.90625 
L 49.515625 72.90625 
L 49.515625 64.59375 
L 19.828125 64.59375 
L 19.828125 46.734375 
Q 21.96875 47.46875 24.109375 47.828125 
Q 26.265625 48.1875 28.421875 48.1875 
Q 40.625 48.1875 47.75 41.5 
Q 54.890625 34.8125 54.890625 23.390625 
Q 54.890625 11.625 47.5625 5.09375 
Q 40.234375 -1.421875 26.90625 -1.421875 
Q 22.3125 -1.421875 17.546875 -0.640625 
Q 12.796875 0.140625 7.71875 1.703125 
L 7.71875 11.625 
Q 12.109375 9.234375 16.796875 8.0625 
Q 21.484375 6.890625 26.703125 6.890625 
Q 35.15625 6.890625 40.078125 11.328125 
Q 45.015625 15.765625 45.015625 23.390625 
Q 45.015625 31 40.078125 35.4375 
Q 35.15625 39.890625 26.703125 39.890625 
Q 22.75 39.890625 18.8125 39.015625 
Q 14.890625 38.140625 10.796875 36.28125 
z
" id="DejaVuSans-53"/>
      </defs>
      <g transform="translate(489.378604 206.838437)scale(0.1 -0.1)">
       <use xlink:href="#DejaVuSans-53"/>
       <use x="63.623047" xlink:href="#DejaVuSans-48"/>
       <use x="127.246094" xlink:href="#DejaVuSans-48"/>
      </g>
     </g>
    </g>
   </g>
   <g id="matplotlib.axis_2">
    <g id="ytick_1">
     <g id="line2d_7">
      <defs>
       <path d="M 0 0 
L -3.5 0 
" id="m9ea8043319" style="stroke:#000000;stroke-width:0.8;"/>
      </defs>
      <g>
       <use style="stroke:#000000;stroke-width:0.8;" x="72" xlink:href="#m9ea8043319" y="174.868182"/>
      </g>
     </g>
     <g id="text_7">
      <!-- −1.0 -->
      <defs>
       <path d="M 10.59375 35.5 
L 73.1875 35.5 
L 73.1875 27.203125 
L 10.59375 27.203125 
z
" id="DejaVuSans-8722"/>
       <path d="M 10.6875 12.40625 
L 21 12.40625 
L 21 0 
L 10.6875 0 
z
" id="DejaVuSans-46"/>
      </defs>
      <g transform="translate(40.717187 178.6674)scale(0.1 -0.1)">
       <use xlink:href="#DejaVuSans-8722"/>
       <use x="83.789062" xlink:href="#DejaVuSans-49"/>
       <use x="147.412109" xlink:href="#DejaVuSans-46"/>
       <use x="179.199219" xlink:href="#DejaVuSans-48"/>
      </g>
     </g>
    </g>
    <g id="ytick_2">
     <g id="line2d_8">
      <g>
       <use style="stroke:#000000;stroke-width:0.8;" x="72" xlink:href="#m9ea8043319" y="142.419592"/>
      </g>
     </g>
     <g id="text_8">
      <!-- −0.5 -->
      <g transform="translate(40.717187 146.21881)scale(0.1 -0.1)">
       <use xlink:href="#DejaVuSans-8722"/>
       <use x="83.789062" xlink:href="#DejaVuSans-48"/>
       <use x="147.412109" xlink:href="#DejaVuSans-46"/>
       <use x="179.199219" xlink:href="#DejaVuSans-53"/>
      </g>
     </g>
    </g>
    <g id="ytick_3">
     <g id="line2d_9">
      <g>
       <use style="stroke:#000000;stroke-width:0.8;" x="72" xlink:href="#m9ea8043319" y="109.971002"/>
      </g>
     </g>
     <g id="text_9">
      <!-- 0.0 -->
      <g transform="translate(49.096875 113.77022)scale(0.1 -0.1)">
       <use xlink:href="#DejaVuSans-48"/>
       <use x="63.623047" xlink:href="#DejaVuSans-46"/>
       <use x="95.410156" xlink:href="#DejaVuSans-48"/>
      </g>
     </g>
    </g>
    <g id="ytick_4">
     <g id="line2d_10">
      <g>
       <use style="stroke:#000000;stroke-width:0.8;" x="72" xlink:href="#m9ea8043319" y="77.522412"/>
      </g>
     </g>
     <g id="text_10">
      <!-- 0.5 -->
      <g transform="translate(49.096875 81.32163)scale(0.1 -0.1)">
       <use xlink:href="#DejaVuSans-48"/>
       <use x="63.623047" xlink:href="#DejaVuSans-46"/>
       <use x="95.410156" xlink:href="#DejaVuSans-53"/>
      </g>
     </g>
    </g>
    <g id="ytick_5">
     <g id="line2d_11">
      <g>
       <use style="stroke:#000000;stroke-width:0.8;" x="72" xlink:href="#m9ea8043319" y="45.073822"/>
      </g>
     </g>
     <g id="text_11">
      <!-- 1.0 -->
      <g transform="translate(49.096875 48.87304)scale(0.1 -0.1)">
       <use xlink:href="#DejaVuSans-49"/>
       <use x="63.623047" xlink:href="#DejaVuSans-46"/>
       <use x="95.410156" xlink:href="#DejaVuSans-48"/>
      </g>
     </g>
    </g>
   </g>
   <g id="line2d_12">
    <path clip-path="url(#p978c214d64)" d="M 92.290909 109.971002 
L 93.104172 36.975754 
L 93.917435 45.170875 
L 94.730698 48.282433 
L 95.543961 41.076063 
L 96.357224 48.191457 
L 97.170486 43.692484 
L 97.983749 44.671237 
L 98.797012 46.674348 
L 99.610275 43.16916 
L 100.423538 46.451893 
L 101.236801 44.698491 
L 102.050064 44.446596 
L 102.863327 46.298288 
L 103.67659 43.846974 
L 104.489852 45.781257 
L 106.116378 44.35467 
L 106.929641 46.082177 
L 107.742904 44.23852 
L 108.556167 45.38676 
L 109.36943 45.380603 
L 110.182693 44.324746 
L 110.995956 45.907808 
L 111.809218 44.527141 
L 112.622481 45.107716 
L 113.435744 45.541741 
L 114.249007 44.334894 
L 115.06227 45.74389 
L 115.875533 44.768306 
L 116.688796 44.891245 
L 117.502059 45.647542 
L 118.315322 44.376803 
L 119.128584 45.578434 
L 119.941847 44.984282 
L 120.75511 44.715454 
L 121.568373 45.711899 
L 122.381636 44.447434 
L 123.194899 45.405293 
L 124.008162 45.185861 
L 124.821425 44.570092 
L 125.634688 45.740675 
L 126.44795 44.546714 
L 127.261213 45.219879 
L 128.074476 45.379467 
L 128.887739 44.450092 
L 129.701002 45.735316 
L 130.514265 44.677293 
L 131.327528 45.016869 
L 132.140791 45.570398 
L 132.954054 44.353035 
L 133.767316 45.693609 
L 134.580579 44.845778 
L 135.393842 44.787672 
L 136.207105 45.765333 
L 137.020368 44.278076 
L 137.833631 45.608358 
L 139.460157 44.515505 
L 140.27342 45.976281 
L 141.086682 44.225552 
L 141.899945 45.462323 
L 142.713208 45.371834 
L 143.526471 44.162075 
L 144.339734 46.231013 
L 145.152997 44.196888 
L 145.96626 45.211287 
L 146.779523 45.848654 
L 147.592786 43.619522 
L 148.406048 46.613888 
L 149.219311 44.192451 
L 150.032574 44.710178 
L 150.845837 46.815712 
L 151.6591 42.43716 
L 152.472363 47.548046 
L 153.285626 44.145008 
L 154.098889 43.10894 
L 154.912152 50.971809 
L 155.725414 34.143789 
L 156.538677 69.98524 
L 157.35194 162.641666 
L 158.165203 183.52117 
L 158.978466 168.55815 
L 159.791729 178.267295 
L 160.604992 174.300248 
L 161.418255 173.372864 
L 162.231518 177.264129 
L 163.04478 172.726784 
L 163.858043 175.963873 
L 164.671306 175.051786 
L 165.484569 173.709325 
L 166.297832 176.364853 
L 167.111095 173.708648 
L 167.924358 175.247852 
L 168.737621 175.332705 
L 169.550884 173.853943 
L 170.364146 175.939318 
L 171.177409 174.20716 
L 172.803935 175.471091 
L 173.617198 173.970089 
L 174.430461 175.647571 
L 175.243724 174.541392 
L 176.056987 174.62653 
L 176.87025 175.539399 
L 177.683512 174.086584 
L 178.496775 175.408597 
L 179.310038 174.798222 
L 180.123301 174.455508 
L 180.936564 175.561897 
L 181.749827 174.21251 
L 182.56309 175.193543 
L 183.376353 175.010397 
L 184.189616 174.332832 
L 185.002878 175.548256 
L 185.816141 174.352127 
L 186.629404 174.989449 
L 187.442667 175.192656 
L 188.25593 174.247828 
L 189.069193 175.502074 
L 189.882456 174.508643 
L 190.695719 174.789073 
L 191.508982 175.352477 
L 192.322244 174.196011 
L 193.135507 175.42334 
L 193.94877 174.685977 
L 194.762033 174.586854 
L 195.575296 175.494167 
L 196.388559 174.176622 
L 197.201822 175.308565 
L 198.828348 174.376294 
L 199.64161 175.620873 
L 200.454873 174.19235 
L 201.268136 175.148967 
L 202.081399 175.134714 
L 202.894662 174.14656 
L 203.707925 175.736171 
L 204.521188 174.251121 
L 205.334451 174.924817 
L 206.147714 175.444817 
L 206.960976 173.874766 
L 207.774239 175.846835 
L 208.587502 174.372532 
L 209.400765 174.587902 
L 210.214028 175.887275 
L 211.027291 173.500782 
L 211.840554 175.972319 
L 212.653817 174.611663 
L 213.46708 173.991511 
L 214.280343 176.68174 
L 215.093605 172.803192 
L 215.906868 176.204751 
L 216.720131 175.186497 
L 217.533394 172.41425 
L 218.346657 179.179915 
L 219.15992 169.895835 
L 219.973183 178.271358 
L 220.786446 177.252267 
L 221.599709 93.564359 
L 222.412971 34.031745 
L 223.226234 48.154043 
L 224.039497 46.196919 
L 224.85276 41.986465 
L 225.666023 48.329707 
L 226.479286 42.89931 
L 227.292549 45.626723 
L 228.105812 45.977903 
L 228.919075 43.378877 
L 229.732337 46.722413 
L 230.5456 44.142712 
L 232.172126 45.96646 
L 232.985389 43.836142 
L 233.798652 46.089168 
L 234.611915 44.691039 
L 235.425178 44.723117 
L 236.238441 45.938208 
L 237.051703 44.114917 
L 237.864966 45.702355 
L 238.678229 45.025619 
L 239.491492 44.560457 
L 240.304755 45.887531 
L 241.118018 44.335812 
L 241.931281 45.414385 
L 242.744544 45.261577 
L 243.557807 44.465241 
L 244.371069 45.815086 
L 245.184332 44.535092 
L 245.997595 45.176564 
L 246.810858 45.439551 
L 247.624121 44.416276 
L 248.437384 45.721121 
L 249.250647 44.72751 
L 250.06391 44.968479 
L 250.877173 45.576869 
L 251.690435 44.404716 
L 252.503698 45.604938 
L 253.316961 44.920703 
L 254.130224 44.780091 
L 254.943487 45.681514 
L 255.75675 44.427407 
L 256.570013 45.464495 
L 257.383276 45.12011 
L 258.196539 44.605553 
L 259.009801 45.756892 
L 259.823064 44.484953 
L 260.636327 45.295503 
L 261.44959 45.331628 
L 262.262853 44.440344 
L 263.076116 45.803493 
L 263.889379 44.581994 
L 265.515905 45.564468 
L 266.329167 44.279105 
L 267.14243 45.818968 
L 267.955693 44.729934 
L 268.768956 44.828118 
L 269.582219 45.836759 
L 270.395482 44.112269 
L 271.208745 45.796389 
L 272.022008 44.955465 
L 272.835271 44.470021 
L 273.648533 46.191381 
L 274.461796 43.916627 
L 275.275059 45.717857 
L 276.088322 45.330085 
L 276.901585 43.897061 
L 277.714848 46.758186 
L 278.528111 43.613766 
L 279.341374 45.528919 
L 280.154637 46.11533 
L 280.967899 42.615731 
L 281.781162 48.178161 
L 282.594425 42.691339 
L 283.407688 45.017261 
L 284.220951 49.457659 
L 285.034214 33.48 
L 285.847477 84.692052 
L 286.66074 172.789451 
L 287.474003 180.274036 
L 288.287265 169.174589 
L 289.100528 179.052353 
L 289.913791 172.992267 
L 290.727054 174.530106 
L 291.540317 176.661457 
L 292.35358 172.677654 
L 293.166843 176.498545 
L 293.980106 174.347501 
L 294.793369 174.261104 
L 295.606631 176.171569 
L 296.419894 173.514847 
L 297.233157 175.694313 
L 298.859683 174.153723 
L 299.672946 175.92761 
L 300.486209 173.953728 
L 301.299472 175.254683 
L 302.112735 175.133996 
L 302.925997 174.1159 
L 303.73926 175.743325 
L 304.552523 174.262215 
L 305.365786 174.954739 
L 306.179049 175.310054 
L 306.992312 174.120586 
L 307.805575 175.575669 
L 308.618838 174.513263 
L 309.432101 174.72656 
L 310.245363 175.425349 
L 311.058626 174.157828 
L 311.871889 175.409356 
L 312.685152 174.734542 
L 313.498415 174.543263 
L 314.311678 175.496839 
L 315.124941 174.223844 
L 315.938204 175.237146 
L 316.751467 174.938861 
L 317.564729 174.392563 
L 318.377992 175.531797 
L 319.191255 174.318013 
L 320.004518 175.054218 
L 320.817781 175.133385 
L 321.631044 174.268458 
L 322.444307 175.532555 
L 323.25757 174.442316 
L 324.884095 175.323443 
L 325.697358 174.168063 
L 326.510621 175.497779 
L 327.323884 174.6022 
L 328.137147 174.633849 
L 328.95041 175.515028 
L 329.763673 174.090315 
L 330.576936 175.421679 
L 331.390199 174.809487 
L 332.203461 174.375031 
L 333.016724 175.718065 
L 333.829987 174.035511 
L 334.64325 175.290165 
L 335.456513 175.090443 
L 336.269776 174.048646 
L 337.083039 175.954162 
L 337.896302 174.005404 
L 338.709565 175.06832 
L 339.522827 175.51166 
L 340.33609 173.57405 
L 341.149353 176.283994 
L 341.962616 174.003068 
L 342.775879 174.650452 
L 343.589142 176.29375 
L 344.402405 172.655213 
L 345.215668 176.964815 
L 346.028931 174.011642 
L 346.842193 173.530364 
L 347.655456 178.794094 
L 348.468719 168.787849 
L 349.281982 181.778284 
L 350.095245 168.666827 
L 350.908508 78.022223 
L 351.721771 33.53388 
L 352.535034 50.256839 
L 353.348297 44.135745 
L 354.161559 43.309049 
L 354.974822 47.953591 
L 355.788085 42.484528 
L 356.601348 46.454765 
L 358.227874 43.846586 
L 359.041137 46.726835 
L 359.8544 43.747753 
L 360.667663 45.569715 
L 361.480925 45.501937 
L 362.294188 44.019885 
L 363.107451 46.231781 
L 363.920714 44.318909 
L 364.733977 45.140886 
L 365.54724 45.660306 
L 366.360503 44.143976 
L 367.173766 45.914987 
L 367.987029 44.682339 
L 368.800291 44.874581 
L 369.613554 45.739126 
L 370.426817 44.262651 
L 371.24008 45.664749 
L 372.053343 44.953913 
L 372.866606 44.690782 
L 373.679869 45.768742 
L 374.493132 44.388332 
L 375.306395 45.444187 
L 376.119657 45.174684 
L 376.93292 44.559573 
L 377.746183 45.760934 
L 378.559446 44.526269 
L 379.372709 45.237581 
L 380.185972 45.362453 
L 380.999235 44.467999 
L 381.812498 45.720308 
L 382.625761 44.679877 
L 383.439024 45.036684 
L 384.252286 45.525989 
L 385.065549 44.410434 
L 385.878812 45.647591 
L 386.692075 44.852814 
L 387.505338 44.835756 
L 388.318601 45.670127 
L 389.131864 44.385346 
L 389.945127 45.540187 
L 391.571652 44.628814 
L 392.384915 45.798081 
L 393.198178 44.394583 
L 394.011441 45.390892 
L 394.824704 45.283847 
L 395.637967 44.406665 
L 396.45123 45.912979 
L 397.264493 44.444603 
L 398.077756 45.183536 
L 398.891018 45.573781 
L 399.704281 44.150917 
L 400.517544 46.019982 
L 401.330807 44.55135 
L 402.14407 44.879904 
L 402.957333 45.972067 
L 403.770596 43.816062 
L 404.583859 46.132503 
L 405.397122 44.757482 
L 406.210384 44.371619 
L 407.023647 46.6352 
L 407.83691 43.251407 
L 408.650173 46.305532 
L 409.463436 45.214138 
L 410.276699 43.20629 
L 411.089962 48.334885 
L 411.903225 41.523269 
L 412.716488 47.130417 
L 413.52975 46.933983 
L 414.343013 35.000267 
L 415.156276 100.717098 
L 415.969539 180.1162 
L 416.782802 176.69942 
L 417.596065 170.60889 
L 418.409328 179.124232 
L 419.222591 172.060648 
L 420.035854 175.677613 
L 420.849116 175.806977 
L 421.662379 172.972338 
L 422.475642 176.759696 
L 423.288905 173.746675 
L 424.102168 174.892466 
L 424.915431 175.778893 
L 425.728694 173.537823 
L 426.541957 176.001656 
L 427.35522 174.389397 
L 428.168482 174.560467 
L 428.981745 175.749475 
L 429.795008 173.848028 
L 430.608271 175.573036 
L 431.421534 174.759398 
L 432.234797 174.3785 
L 433.04806 175.700076 
L 433.861323 174.081437 
L 434.674586 175.266209 
L 435.487848 175.012968 
L 436.301111 174.272322 
L 437.114374 175.629823 
L 437.927637 174.286239 
L 438.7409 175.01837 
L 439.554163 175.201483 
L 440.367426 174.215697 
L 441.180689 175.538694 
L 441.993952 174.480828 
L 442.807214 174.804444 
L 443.620477 175.346074 
L 444.43374 174.197809 
L 445.247003 175.426051 
L 446.060266 174.674128 
L 446.873529 174.612566 
L 447.686792 175.456374 
L 448.500055 174.214474 
L 449.313318 175.290147 
L 450.939843 174.436176 
L 451.753106 175.536651 
L 452.566369 174.26547 
L 453.379632 175.127338 
L 454.192895 175.079703 
L 455.006158 174.270667 
L 455.819421 175.587987 
L 456.632684 174.354362 
L 457.445946 174.930382 
L 458.259209 175.305524 
L 459.072472 174.111225 
L 459.885735 175.608682 
L 460.698998 174.490501 
L 461.512261 174.684435 
L 462.325524 175.564289 
L 463.138787 173.950068 
L 463.95205 175.592993 
L 464.765312 174.695521 
L 465.578575 174.356163 
L 466.391838 175.889635 
L 467.205101 173.769664 
L 468.018364 175.526221 
L 468.831627 175.024684 
L 469.64489 173.856899 
L 470.458153 176.376117 
L 471.271416 173.516174 
L 472.084678 175.365985 
L 472.897941 175.660614 
L 473.711204 172.860827 
L 474.524467 177.41926 
L 475.33773 172.909953 
L 476.150993 174.947699 
L 476.964256 177.70915 
L 477.777519 168.60461 
L 478.590782 184.68 
L 479.404044 157.354889 
L 480.217307 64.127048 
L 481.03057 34.982795 
L 481.843833 51.287838 
L 482.657096 42.407555 
L 484.283622 47.151553 
L 485.096885 42.493278 
L 485.910148 47.032509 
L 486.72341 44.37067 
L 487.536673 44.490882 
L 488.349936 46.472366 
L 489.163199 43.571024 
L 489.976462 46.038192 
L 490.789725 44.980405 
L 491.602988 44.365459 
L 492.416251 46.189795 
L 493.229514 44.071799 
L 494.042776 45.541561 
L 494.856039 45.294114 
L 495.669302 44.319069 
L 496.482565 45.992477 
L 497.295828 44.404678 
L 498.109091 45.216803 
L 498.109091 45.216803 
" style="fill:none;stroke:#1f77b4;stroke-linecap:square;stroke-width:1.5;"/>
   </g>
   <g id="patch_3">
    <path d="M 72 192.24 
L 72 25.92 
" style="fill:none;stroke:#000000;stroke-linecap:square;stroke-linejoin:miter;stroke-width:0.8;"/>
   </g>
   <g id="patch_4">
    <path d="M 518.4 192.24 
L 518.4 25.92 
" style="fill:none;stroke:#000000;stroke-linecap:square;stroke-linejoin:miter;stroke-width:0.8;"/>
   </g>
   <g id="patch_5">
    <path d="M 72 192.24 
L 518.4 192.24 
" style="fill:none;stroke:#000000;stroke-linecap:square;stroke-linejoin:miter;stroke-width:0.8;"/>
   </g>
   <g id="patch_6">
    <path d="M 72 25.92 
L 518.4 25.92 
" style="fill:none;stroke:#000000;stroke-linecap:square;stroke-linejoin:miter;stroke-width:0.8;"/>
   </g>
  </g>
 </g>
 <defs>
  <clipPath id="p978c214d64">
   <rect height="166.32" width="446.4" x="72" y="25.92"/>
  </clipPath>
 </defs>
</svg>
